<?xml version="1.0" encoding="UTF-8"?><svg id="a" xmlns="http://www.w3.org/2000/svg" viewBox="0 0 62 44"><defs><style>.b{fill:#fff;}</style></defs><path class="b" d="M9.73,18.29c-1.88-.53-4.89-1.24-8.19-.36-.61,.16-1.03,.43-1.32,.95-.14,.26-.28,.53-.21,.82,.06,.24,.41,.32,.68,.37,.26,.04,.86,.07,1.03-.12,.08-.1,.09-.38-.35-.48-.16-.03-.6-.05-.64-.12,0,0,.02-.05,.26-.13,.11-.03,.89-.36,3.04-.29,2.55,.08,4.78,.68,7.14,1.61,2.31,.91,4.9,2.55,6.42,4.5,.57,.74,1.29,1.95,1.38,2.98,.23,2.49-2.2,4.58-7.13,4.41-.84-.03-1.87-.23-1.87-.23l-.1-4.8s2.09-.02,4.39,.74c.2,.06,.39,.19,.41,.38,.01,.15-.1,.27-.23,.39-.24,.21-.57,.3-.64,.39-.05,.06-.05,.16,.02,.22,.17,.13,.6,.23,.89,.2,.58-.05,.97-.39,1.26-.83,.31-.47,.49-1.66-1.17-2.42-2.14-.98-4.94-.8-4.94-.8,0,0-.01-.65-.04-1.08-.05-.71-.24-2.11-.89-2.51-.12-.07-.26-.08-.35,.03-.13,.16-.25,.79-.28,.95-.24,1.45-.23,2.76-.24,2.77,0,0-.01,.02-.03,.02-.03,.02-1.57,.2-3.07,.85-.6,.26-1.45,.72-1.71,1.32-.33,.77,.25,1.62,1.24,2.56,.84,.79,2.07,1.63,2.99,2.06,.23,.11,.51,.25,.51,.25,0,0,.06,.55,.11,.87,.17,1.15,1.05,.99,1.3,.94,.39-.08,.47-.34,.52-.65,.03-.17,.02-.41,.02-.41,0,0,.6,.14,1,.21,1.16,.22,2.43,.25,3.52,.1,4.38-.6,5.49-2.66,5.84-3.22,.61-.96,1.89-3.63-1.98-7.6-.89-.91-3.45-3.4-8.59-4.86ZM3.94,29.1c-.16-.16-.28-.34-.24-.56,.04-.21,.44-.39,.65-.45,1.98-.58,3.65-.61,3.65-.61,0,0-.02,.71-.02,1.43,0,1.36,.03,2.74,.03,2.74,0,0-2.23-.65-4.07-2.55Z"/><path class="b" d="M24.03,24.11c.93-.36,1.64-.88,2.37-1.63,.42-.43,.79-1.14,.66-1.78-.07-.32-.21-.54-.48-.77-.13-.11-.44-.28-.69-.33-.07-.01-.15-.02-.18-.04-.04-.02-.06-.07-.1-.11-.16-.21-.48-.4-.72-.48-.71-.25-1.66-.06-2.31,.21-.68,.29-1.32,.71-1.8,1.23-1.26,1.35-.71,2.42-.59,2.62,.1,.17,.27,.35,.31,.53,.02,.1,0,.24,0,.37,0,.28,.13,.58,.35,.77,.15,.13,.37,.17,.59-.16,.07-.11,.2-.34,.2-.34,0,0,.26,.15,.88,.19,.46,.03,1.1-.11,1.5-.27Zm-2.97-1.63s-.04-.09-.07-.16c-.19-.47,.23-1.01,.61-1.34,.75-.64,1.39-.62,1.39-.62,0,0-.15,.12-.28,.23-1.09,.96-1.65,1.88-1.65,1.88Zm1.64-.02c.46-.59,1.31-1.32,1.9-1.68,.46-.28,.86-.35,1.16-.22,.18,.08,.32,.24,.34,.45,.08,.67-.69,1.22-1.2,1.52-1.17,.68-2.55,.53-2.58,.47,0-.02,.28-.4,.39-.54Z"/><path class="b" d="M50.48,26.08c-1.49-1.03-3.88,2.24-4.94,3.86-.16-.83,.4-1.87,.4-1.87,0,0,.9-1.55,1.02-1.86,.12-.32,.19-.97,.04-1.03-.14-.06-.38,.14-.38,.14-2.01,1.8-2.29,3.81-2.29,3.81-.19,1.08,.03,1.83,.36,2.36-1.12,2.38-1.66,4.46-1.52,5.69,.14,.93,.81,1.61,1.21,1.75,.41,.17,.48-.32,.48-.32,.33-2.54,.91-4.24,1.61-5.92,2.1,.48,3.67-1.56,4.23-2.53,.33-.59,.51-1.37,.51-2.1,0-.84-.23-1.61-.73-1.97Zm-1.37,4.05c-.24,.23-1.04,.68-1.86,.77,.79-1.53,1.76-2.65,2.31-3.25,.63-.71,.71-.07,.71-.07,.15,1.25-.76,2.2-1.16,2.54Z"/><path class="b" d="M43.6,31.33c.1-.38-.25-.8-.56-.88-.29-.06-2.54,.36-2.81,.43-.29,.08-.16-.19-.16-.19l.35-1.18s2.15-.08,2.46-.13c.29-.05,.31-.26,.31-.26,0,0,.04-.34,.03-.65-.03-.34-.3-.31-.3-.31-.83-.09-1.97,.01-1.97,.01l.29-.9s2.28-.11,3.15-.31c.45-.11,.18-.54,.18-.54-.54-1.08-1.17-1.02-1.17-1.02-1.8-.06-4.4,.42-4.69,.56-.27,.12-.24,.32,.11,.76,.37,.46,1,.42,1,.42l-.55,1.14c-.45,.03-.6,.17-.6,.17-.26,.28,.1,1.09,.1,1.09,0,0-.78,1.75-.21,2.67,.61,.97,1.33,.92,1.33,.92,1.37,.1,3.61-1.33,3.73-1.8Z"/><path class="b" d="M35.75,24.38s-.32-.15-.4,.17c-.08,.31,.04,.65,.04,.65,.79,2.69,.97,4.27,.97,4.27,0,0,.04,.47-.05,.49-.06,.05-.13-.02-.13-.02-.09,0-.96-1.45-.96-1.45l-.17-.29c-.95-1.54-1.53-2.07-1.53-2.07-.14-.13-.48-.48-.92,0-.43,.48-.77,2.04-.91,3.5-.12,1.46-.03,2.29,.18,2.64,.23,.35,.69,.48,1.06,.17,.39-.3,.32-2.23,.38-3.21,.06-.99,.16-.81,.16-.81,.09-.02,.54,.88,.54,.88,0,0,1.19,2.43,1.93,2.79,.76,.36,1.36-.22,1.59-.76,.23-.54,.63-2.35,.04-4.35-.6-2-1.82-2.61-1.82-2.61Z"/><path class="b" d="M23.42,29.53c-.03-.66-.11-2.36-.3-3.13-.08-.33-.21-.63-.54-.75-.04-.01-.08-.03-.11-.03-.2-.04-.32,.24-.37,.38-.16,.41-.28,1.4-.31,1.7-.1,.93-.17,3.13-.01,4.26,.07,.47,.22,.78,.7,.87,.19,.04,.54,.03,.7-.07,.13-.08,.23-.25,.26-.39,.09-.39,.05-.95,.04-1.36-.02-.49-.03-.98-.06-1.48Z"/><path class="b" d="M31.09,25.81c-1.03-.55-2.72-.55-3.76-.42-1.08,.13-2.52,.47-3.14,1.36-.24,.34-.37,.86-.27,1.28,.06,.24,.23,.41,.48,.54,.44,.23,1.9,.28,2.55,.35,.61,.07,1.74,.17,2.36,.43,0,0,.59,.21,.59,.54,0,.17-.13,.3-.25,.39-.92,.65-2.19,.84-3.32,.82-.38,0-.7-.07-1.09-.23-.17-.07-.38-.2-.35-.43,.05-.36,.46-.45,.79-.42,.18,.02,.42,.09,.6,.17,.72,.29,1.05,.53,1.69,.43,.24-.04,1.06-.21,1.17-.55,.03-.08-.01-.17-.07-.23-.09-.09-.58-.28-.72-.33-.49-.17-1.4-.33-1.92-.35-.67-.02-1.59,.11-1.97,.67-.34,.5-.42,1.51,1.29,2.36,.79,.39,1.76,.57,2.65,.47,.51-.06,1.97-.29,2.52-1.45,.3-.63,.27-1.46-.05-2.05-.21-.39-.47-.91-2.38-1.15-.3-.04-2.55-.3-2.76-.33-.11-.02-.64-.08-.46-.28,.05-.06,.21-.1,.3-.13,1.18-.32,2.67-.29,3.91-.35,.28-.02,.91-.06,1.21-.15,.29-.09,.53-.29,.6-.61,.03-.17-.05-.25-.21-.33Z"/><path class="b" d="M61.7,27.27h-3.53c-.04-1.22-.16-2.42-.37-3.61-.04-.2-.21-.35-.42-.35h-.95c-.19,0-.33,.17-.29,.35,.22,1.18,.35,2.38,.4,3.6h-3.58c-.16,0-.3,.13-.3,.3v1.08c0,.16,.13,.3,.3,.3h3.58c-.04,1.22-.17,2.42-.4,3.6-.03,.18,.11,.35,.29,.35h.95c.21,0,.38-.15,.42-.35,.21-1.18,.33-2.39,.37-3.61h3.53c.16,0,.3-.13,.3-.3v-1.08c0-.16-.13-.3-.3-.3Z"/><path class="b" d="M13.15,14.18c.14,.1,.34,.03,.48-.13,1.21-1.3,2.53-2.44,4.04-3.47,9.89-6.75,24.4-5.77,32.89,2.79,2.79,2.8,4.33,5.8,5.13,8.16,.06,.17,.22,.29,.4,.29h.98c.2,0,.35-.2,.28-.39-1.06-3.13-3.1-6.56-6.08-9.36C42.36,3.68,27.92,2.74,17.86,9.61c-1.65,1.11-3.28,2.54-4.72,4.16-.14,.16-.09,.34,.01,.41Z"/></svg>