<?xml version="1.0" encoding="UTF-8"?><svg id="a" xmlns="http://www.w3.org/2000/svg" viewBox="0 0 20 18"><defs><style>.b{fill:#fff;}</style></defs><path class="b" d="M3.14,7.8c-.61-.17-1.58-.4-2.64-.12-.2,.05-.33,.14-.43,.3-.05,.08-.09,.17-.07,.26,.02,.08,.13,.1,.22,.12,.09,.01,.28,.02,.33-.04,.03-.03,.03-.12-.11-.15-.05-.01-.19-.02-.21-.04,0,0,0-.02,.08-.04,.03-.01,.29-.11,.98-.09,.82,.03,1.54,.22,2.3,.52,.74,.29,1.58,.82,2.07,1.45,.19,.24,.42,.63,.45,.96,.07,.8-.71,1.48-2.3,1.42-.27,0-.6-.07-.6-.07l-.03-1.55s.67,0,1.42,.24c.06,.02,.13,.06,.13,.12,0,.05-.03,.09-.07,.12-.08,.07-.18,.1-.21,.13-.02,.02-.02,.05,0,.07,.06,.04,.19,.07,.29,.06,.19-.02,.31-.13,.41-.27,.1-.15,.16-.54-.38-.78-.69-.32-1.59-.26-1.59-.26,0,0,0-.21-.01-.35-.02-.23-.08-.68-.29-.81-.04-.02-.08-.03-.11,0-.04,.05-.08,.25-.09,.31-.08,.47-.07,.89-.08,.89h0s-.51,.07-.99,.28c-.19,.08-.47,.23-.55,.43-.11,.25,.08,.52,.4,.83,.27,.26,.67,.53,.96,.67,.08,.04,.16,.08,.16,.08,0,0,.02,.18,.03,.28,.06,.37,.34,.32,.42,.3,.13-.03,.15-.11,.17-.21,0-.05,0-.13,0-.13,0,0,.19,.04,.32,.07,.38,.07,.78,.08,1.14,.03,1.41-.19,1.77-.86,1.88-1.04,.2-.31,.61-1.17-.64-2.45-.29-.29-1.11-1.1-2.77-1.57Zm-1.87,3.49c-.05-.05-.09-.11-.08-.18,.01-.07,.14-.13,.21-.15,.64-.19,1.18-.2,1.18-.2,0,0,0,.23,0,.46,0,.44,0,.88,0,.88,0,0-.72-.21-1.31-.82Z"/><path class="b" d="M7.75,9.68c.3-.12,.53-.29,.76-.52,.14-.14,.26-.37,.21-.58-.02-.1-.07-.17-.16-.25-.04-.04-.14-.09-.22-.11-.02,0-.05,0-.06-.01-.01,0-.02-.02-.03-.04-.05-.07-.16-.13-.23-.16-.23-.08-.54-.02-.74,.07-.22,.09-.42,.23-.58,.4-.41,.44-.23,.78-.19,.84,.03,.05,.09,.11,.1,.17,0,.03,0,.08,0,.12,0,.09,.04,.19,.11,.25,.05,.04,.12,.06,.19-.05,.02-.04,.06-.11,.06-.11,0,0,.08,.05,.28,.06,.15,.01,.35-.03,.48-.09Zm-.96-.53s-.01-.03-.02-.05c-.06-.15,.07-.33,.2-.43,.24-.21,.45-.2,.45-.2,0,0-.05,.04-.09,.08-.35,.31-.53,.61-.53,.61Zm.53,0c.15-.19,.42-.43,.61-.54,.15-.09,.28-.11,.37-.07,.06,.03,.1,.08,.11,.15,.03,.21-.22,.39-.39,.49-.38,.22-.82,.17-.83,.15,0,0,.09-.13,.12-.18Z"/><path class="b" d="M16.28,10.31c-.48-.33-1.25,.72-1.59,1.24-.05-.27,.13-.6,.13-.6,0,0,.29-.5,.33-.6,.04-.1,.06-.31,.01-.33-.05-.02-.12,.05-.12,.05-.65,.58-.74,1.23-.74,1.23-.06,.35,.01,.59,.12,.76-.36,.77-.54,1.44-.49,1.83,.04,.3,.26,.52,.39,.57,.13,.06,.16-.1,.16-.1,.11-.82,.29-1.37,.52-1.91,.68,.16,1.18-.5,1.36-.82,.11-.19,.16-.44,.16-.68,0-.27-.07-.52-.24-.64Zm-.44,1.31c-.08,.07-.33,.22-.6,.25,.25-.49,.57-.85,.74-1.05,.2-.23,.23-.02,.23-.02,.05,.4-.25,.71-.37,.82Z"/><path class="b" d="M14.06,12.01c.03-.12-.08-.26-.18-.28-.09-.02-.82,.12-.91,.14-.09,.03-.05-.06-.05-.06l.11-.38s.69-.03,.79-.04c.09-.02,.1-.08,.1-.08,0,0,.01-.11,0-.21-.01-.11-.1-.1-.1-.1-.27-.03-.64,0-.64,0l.09-.29s.74-.04,1.02-.1c.14-.03,.06-.18,.06-.18-.17-.35-.38-.33-.38-.33-.58-.02-1.42,.13-1.51,.18-.09,.04-.08,.1,.04,.24,.12,.15,.32,.13,.32,.13l-.18,.37c-.14,.01-.19,.06-.19,.06-.08,.09,.03,.35,.03,.35,0,0-.25,.56-.07,.86,.2,.31,.43,.3,.43,.3,.44,.03,1.16-.43,1.2-.58Z"/><path class="b" d="M11.53,9.77s-.1-.05-.13,.05c-.03,.1,.01,.21,.01,.21,.26,.87,.31,1.38,.31,1.38,0,0,.01,.15-.02,.16-.02,.02-.04,0-.04,0-.03,0-.31-.47-.31-.47l-.05-.09c-.31-.5-.49-.67-.49-.67-.04-.04-.16-.15-.3,0-.14,.16-.25,.66-.29,1.13-.04,.47,0,.74,.06,.85,.08,.11,.22,.15,.34,.06,.13-.1,.1-.72,.12-1.04,.02-.32,.05-.26,.05-.26,.03,0,.17,.28,.17,.28,0,0,.38,.78,.62,.9,.24,.12,.44-.07,.51-.25,.08-.18,.2-.76,.01-1.4-.19-.64-.59-.84-.59-.84Z"/><path class="b" d="M7.55,11.43c0-.21-.04-.76-.1-1.01-.03-.11-.07-.2-.17-.24-.01,0-.03,0-.04-.01-.07-.01-.1,.08-.12,.12-.05,.13-.09,.45-.1,.55-.03,.3-.06,1.01,0,1.37,.02,.15,.07,.25,.23,.28,.06,.01,.18,.01,.23-.02,.04-.03,.07-.08,.08-.13,.03-.13,.02-.31,.01-.44,0-.16-.01-.32-.02-.48Z"/><path class="b" d="M10.03,10.23c-.33-.18-.88-.18-1.21-.13-.35,.04-.81,.15-1.01,.44-.08,.11-.12,.28-.09,.41,.02,.08,.07,.13,.15,.17,.14,.07,.61,.09,.82,.11,.2,.02,.56,.06,.76,.14,0,0,.19,.07,.19,.17,0,.05-.04,.1-.08,.13-.3,.21-.71,.27-1.07,.26-.12,0-.23-.02-.35-.07-.05-.02-.12-.07-.11-.14,.01-.12,.15-.15,.25-.14,.06,0,.14,.03,.19,.05,.23,.09,.34,.17,.55,.14,.08-.01,.34-.07,.38-.18,0-.03,0-.06-.02-.08-.03-.03-.19-.09-.23-.11-.16-.06-.45-.11-.62-.11-.22,0-.51,.04-.64,.22-.11,.16-.14,.49,.42,.76,.26,.13,.57,.18,.85,.15,.16-.02,.64-.09,.81-.47,.1-.2,.09-.47-.02-.66-.07-.13-.15-.29-.77-.37-.1-.01-.82-.1-.89-.11-.04,0-.21-.03-.15-.09,.02-.02,.07-.03,.1-.04,.38-.1,.86-.09,1.26-.11,.09,0,.29-.02,.39-.05,.09-.03,.17-.1,.19-.2,.01-.05-.02-.08-.07-.11Z"/><path class="b" d="M19.9,10.7h-1.14c-.01-.39-.05-.78-.12-1.16-.01-.07-.07-.11-.13-.11h-.31c-.06,0-.11,.05-.09,.11,.07,.38,.11,.77,.13,1.16h-1.16c-.05,0-.1,.04-.1,.1v.35c0,.05,.04,.1,.1,.1h1.16c-.01,.39-.06,.78-.13,1.16-.01,.06,.03,.11,.09,.11h.31c.07,0,.12-.05,.13-.11,.07-.38,.11-.77,.12-1.16h1.14c.05,0,.1-.04,.1-.1v-.35c0-.05-.04-.1-.1-.1Z"/><path class="b" d="M4.24,6.48s.11,0,.15-.04c.39-.42,.82-.79,1.3-1.12,3.19-2.18,7.87-1.86,10.61,.9,.9,.9,1.4,1.87,1.66,2.63,.02,.06,.07,.09,.13,.09h.31c.07,0,.11-.06,.09-.13-.34-1.01-1-2.12-1.96-3.02-2.88-2.71-7.53-3.01-10.78-.8-.53,.36-1.06,.82-1.52,1.34-.05,.05-.03,.11,0,.13Z"/></svg>