<svg xmlns="http://www.w3.org/2000/svg" viewBox="0 0 58.76 11.54"><defs><style>.cls-1{fill:#000;}</style></defs><title>Asset 1</title><g id="Layer_2" data-name="Layer 2"><g id="Layer_1-2" data-name="Layer 1"><g id="Spec"><g id="espn-espnPlus-buttons-specs-v01"><g id="_48-Specs" data-name="48-Specs"><g id="Spec-Button"><g id="iOS-Asset"><g id="Group"><g id="Disney_ESPN_ESPN_White" data-name="Disney/ESPN/ESPN+/White"><g id="espn__navBar_logo" data-name="espn+_navBar_logo"><polygon id="Fill-9" class="cls-1" points="55.84 4.32 56.2 1.43 53.13 1.43 52.77 4.32 49.88 4.32 49.53 7.17 52.42 7.17 52.05 10.11 55.13 10.11 55.5 7.17 58.41 7.17 58.76 4.32 55.84 4.32"/><polygon id="Fill-8" class="cls-1" points="42.13 11.54 46 11.54 46.89 4.47 43.01 4.47 42.13 11.54"/><polygon id="Fill-7" class="cls-1" points="34.77 11.54 38.65 11.54 39.53 4.47 35.65 4.47 34.77 11.54"/><path id="Fill-6" class="cls-1" d="M36.21,0h8.45C46,0,47.39.62,47.11,2.74c0,.38-.06.5-.06.5H35.81Z"/><path id="Fill-5" class="cls-1" d="M34.87,4.47s0,.46-.12,1a2,2,0,0,1-2.26,1.72H27.62l-.55,4.39H23.2l.88-7.07Z"/><path id="Fill-4" class="cls-1" d="M20.54,4.48H12c-.29,1.85.64,2.68,2,2.68h5.24l-.17,1.32H11.52l-.38,3.07h8.54c.28,0,2.2-.07,2.85-1.63A19.83,19.83,0,0,0,23,7.21c.3-2.21-1.24-2.73-2.45-2.73"/><path id="Fill-3" class="cls-1" d="M32.53,0H15.38c-1.76,0-2.91.92-3.08,2.29-.06.5-.12,1-.12,1H35s0-.33.08-.6C35.27,1.26,34.68,0,32.53,0"/><polygon id="Fill-2" class="cls-1" points="0.89 4.47 0 11.54 10.36 11.54 10.74 8.47 4.26 8.47 4.42 7.15 10.91 7.15 11.24 4.47 0.89 4.47"/><polygon id="Fill-1" class="cls-1" points="1.44 0 11.8 0 11.4 3.24 1.04 3.24 1.44 0"/></g></g></g></g></g></g></g></g></g></g></svg>