<svg width="6154" height="1310" viewBox="0 0 6154 1310" fill="none" xmlns="http://www.w3.org/2000/svg">
<g clip-path="url(#clip0_2021_39)">
<mask id="mask0_2021_39" style="mask-type:luminance" maskUnits="userSpaceOnUse" x="0" y="0" width="6154" height="1310">
<path d="M6154 0H0V1310H6154V0Z" fill="white"/>
</mask>
<g mask="url(#mask0_2021_39)">
<mask id="mask1_2021_39" style="mask-type:luminance" maskUnits="userSpaceOnUse" x="3731" y="0" width="2423" height="1310">
<path d="M6153.85 0H3731.36V1309.63H6153.85V0Z" fill="white"/>
</mask>
<g mask="url(#mask1_2021_39)">
<path d="M4245.07 352.29C4250.56 356.021 4258.19 353.241 4263.67 347.461C4310.86 297.198 4362.57 253.519 4421.39 213.791C4807.43 -46.5988 5374.23 -8.77313 5705.83 321.268C5814.73 429.112 5874.73 544.857 5906.14 635.873C5908.44 642.53 5914.74 646.993 5921.85 646.993H5959.93C5967.85 646.993 5973.49 639.311 5970.89 631.849C5929.63 511.128 5849.69 378.702 5733.61 270.932C5385.57 -52.8177 4821.66 -88.8142 4428.72 175.965C4364.42 218.839 4300.56 273.785 4244.48 336.487C4238.93 342.705 4240.85 349.437 4245.07 352.29ZM5417.42 1238.67C5411.72 1191.33 5433.13 1111.22 5476.69 1019.4C5463.95 998.984 5455.28 969.792 5462.69 928.235C5462.69 928.235 5473.65 851.047 5552.18 781.468C5552.18 781.468 5561.59 773.42 5567.07 775.908C5573.07 778.396 5570.33 803.491 5565.51 815.709C5560.55 827.854 5525.58 887.629 5525.58 887.629C5525.58 887.629 5503.8 928.015 5509.95 959.842C5551.14 897.36 5644.71 771.225 5702.71 811.026C5722.2 824.781 5731.16 854.778 5731.16 887.044C5731.16 915.358 5724.27 945.502 5711.46 968.109C5689.68 1005.72 5628.11 1084.37 5546.25 1065.78C5519.21 1130.46 5496.54 1195.94 5483.58 1293.91C5483.58 1293.91 5480.76 1312.93 5464.69 1306.35C5448.84 1300.86 5422.68 1274.81 5417.35 1238.74L5417.42 1238.67ZM5576.7 996.789C5608.93 993.204 5640.04 975.938 5649.45 967.158C5664.71 953.769 5700.34 917.407 5694.64 869.119C5694.64 869.119 5691.38 844.243 5666.79 871.606C5645.6 894.726 5607.45 937.966 5576.7 996.789ZM5149.32 961.012C5146.88 962.841 5144.06 960.281 5144.06 960.281C5140.51 960.427 5106.65 904.237 5106.65 904.237L5100.06 893.263C5062.79 833.854 5040.2 813.587 5040.2 813.587C5034.94 808.685 5021.31 795.223 5004.42 813.807C4987.53 832.463 4974.26 892.385 4968.93 948.721C4964.41 1004.91 4967.82 1036.96 4976.19 1050.42C4985.3 1064.1 5002.93 1068.71 5017.53 1057C5032.86 1045.37 5029.97 971.182 5032.42 933.137C5034.72 894.945 5038.57 901.75 5038.57 901.75C5041.98 900.872 5059.53 935.771 5059.53 935.771C5059.53 935.771 5105.91 1029.49 5135.02 1043.39C5164.51 1057.22 5188.21 1034.98 5197.25 1014.06C5206.36 993.058 5221.92 923.479 5198.81 846.438C5175.55 769.396 5127.69 745.618 5127.69 745.618C5127.69 745.618 5115.24 739.911 5112.13 752.13C5108.95 764.202 5113.69 777.152 5113.69 777.152C5144.58 880.752 5151.62 941.916 5151.62 941.916C5151.62 941.916 5153.03 959.915 5149.47 960.939L5149.32 961.012ZM4730.53 856.9C4776.54 844.462 4834.92 845.926 4883.22 843.219C4894.03 842.56 4918.56 841.097 4930.41 837.365C4941.67 833.927 4951.08 826.025 4953.67 813.734C4955 807.222 4951.82 804.149 4945.6 800.857C4905.52 779.786 4839.58 779.786 4798.76 784.761C4756.61 789.882 4700.16 802.905 4676.08 837.073C4666.9 850.096 4661.49 870.216 4665.71 886.531C4668.08 895.604 4674.75 902.481 4684.31 907.456C4701.42 916.236 4758.39 918.138 4783.73 920.845C4807.65 923.406 4851.73 927.576 4876.03 937.6C4876.03 937.6 4899 945.501 4898.85 958.451C4898.85 964.89 4893.96 969.938 4889 973.45C4852.92 998.692 4803.43 1005.86 4759.35 1005.13C4744.39 1004.91 4732.09 1002.57 4716.98 996.204C4710.53 993.424 4702.16 988.302 4703.27 979.596C4705.05 965.621 4721.2 962.183 4734.02 963.427C4741.13 964.085 4750.54 967.085 4757.5 969.792C4785.73 980.84 4798.69 990.058 4823.51 986.327C4832.77 984.937 4864.92 978.059 4869.29 964.963C4870.4 961.744 4868.85 958.305 4866.48 955.964C4863.07 952.525 4843.73 945.136 4838.47 943.233C4819.51 936.575 4783.65 930.503 4763.65 929.771C4737.5 928.82 4701.49 934.161 4686.53 955.598C4673.05 974.913 4670.01 1013.91 4736.83 1046.61C4767.87 1061.83 4805.51 1068.64 4840.18 1064.83C4860.03 1062.56 4917.07 1053.78 4938.63 1008.93C4950.26 984.79 4949.08 952.598 4936.63 929.698C4928.41 914.626 4918.41 894.506 4843.88 885.288C4831.95 883.824 4744.31 873.801 4736.31 872.557C4731.87 871.899 4711.35 869.484 4718.53 861.729C4720.53 859.534 4726.76 857.851 4730.39 856.827L4730.53 856.9ZM5236.52 1047.64C5260.22 1085.02 5288.3 1083.27 5288.3 1083.27C5341.64 1087.15 5429.28 1031.91 5434.02 1013.69C5437.95 998.984 5424.39 982.815 5412.09 979.815C5400.68 977.474 5312.82 993.716 5302.37 996.497C5291.11 999.496 5296.15 989.034 5296.15 989.034L5309.71 943.672C5309.71 943.672 5393.5 940.453 5405.72 938.478C5416.98 936.502 5417.65 928.601 5417.65 928.601C5417.65 928.601 5419.13 915.651 5418.68 903.505C5417.42 890.555 5406.98 891.726 5406.98 891.726C5374.53 888.361 5330.01 892.165 5330.01 892.165L5341.27 857.412C5341.27 857.412 5430.39 853.096 5464.32 845.413C5481.73 841.389 5471.5 824.489 5471.5 824.489C5450.39 782.712 5426.02 785.127 5426.02 785.127C5355.94 782.785 5254 801.149 5242.89 806.637C5232.52 811.319 5233.63 819.001 5247.18 835.902C5261.78 853.681 5286.22 851.998 5286.22 851.998L5264.74 895.896C5247.18 897.14 5241.18 902.554 5241.18 902.554C5231.11 913.236 5245.04 944.697 5245.04 944.697C5245.04 944.697 5214.59 1012.15 5236.66 1047.78L5236.52 1047.64ZM4634.38 823.391C4631.26 810.661 4626 799.028 4613.34 794.272C4611.85 793.76 4610.15 793.248 4609.04 793.028C4601.11 791.492 4596.52 802.32 4594.45 807.661C4588.15 823.538 4583.63 861.51 4582.44 873.362C4578.74 909.212 4575.7 994.228 4582 1037.54C4584.67 1055.69 4590.67 1067.47 4609.26 1071.27C4616.82 1072.81 4630.52 1072.51 4636.52 1068.71C4641.78 1065.49 4645.49 1059.2 4646.67 1053.78C4650.08 1038.71 4648.75 1017.28 4648.08 1001.18C4647.27 982.156 4646.75 963.28 4645.93 944.038C4644.75 918.431 4641.64 852.949 4634.38 823.391ZM4158.69 1111.07C4143.06 1108.29 4119.8 1102.95 4119.8 1102.95C4119.8 1102.95 4120.32 1112.24 4119.13 1118.61C4116.99 1130.31 4114.02 1140.48 4098.61 1143.56C4089.13 1145.46 4054.76 1151.97 4048.02 1107.41C4046.16 1095.05 4043.87 1073.68 4043.87 1073.68C4043.87 1073.68 4033.13 1068.42 4024.01 1064.17C3988.23 1047.49 3940 1015.23 3907.26 984.644C3868.59 948.501 3845.7 915.797 3858.74 886.019C3868.81 862.9 3902.15 844.901 3925.41 834.951C3983.71 810.002 4044.09 802.905 4045.13 802.247C4045.5 801.954 4045.79 801.662 4046.09 801.369C4046.61 800.637 4046.09 750.447 4055.57 694.404C4056.61 688.185 4061.42 664.041 4066.39 657.748C4069.57 653.505 4075.28 653.798 4079.87 656.651C4105.13 672.162 4112.84 726.01 4114.69 753.447C4115.8 770.128 4116.39 795.223 4116.39 795.223C4116.39 795.223 4225.66 788.053 4309.23 826.025C4373.9 855.364 4366.94 901.384 4354.79 919.455C4343.38 936.429 4328.27 949.379 4305.6 951.355C4294.41 952.306 4277.74 948.794 4271 943.672C4268.34 941.624 4268.34 937.819 4270.41 935.405C4273.23 931.966 4286.04 928.527 4295.38 920.479C4300.41 916.09 4304.93 911.261 4304.49 905.627C4303.82 898.311 4296.12 893.336 4288.41 890.848C4198.4 861.583 4116.99 862.168 4116.99 862.168L4120.99 1047.2C4120.99 1047.2 4160.99 1054.88 4193.81 1056.05C4386.2 1062.56 4481.03 981.644 4472.14 885.8C4468.51 846.365 4440.58 799.467 4418.13 770.933C4358.79 695.574 4257.59 632.214 4167.58 597.169C4075.57 561.392 3988.6 538.345 3888.96 535.199C3805.17 532.565 3774.5 545.003 3770.36 546.247C3760.87 549.174 3760.28 551.149 3760.28 551.149C3761.61 554.002 3778.88 554.588 3785.17 555.905C3802.36 559.49 3802.29 570.391 3798.95 574.269C3792.65 581.731 3769.17 580.488 3758.87 578.878C3748.13 577.195 3734.72 573.903 3732.28 564.684C3729.39 553.783 3734.65 543.101 3740.35 533.224C3751.76 513.47 3767.99 503.08 3791.84 496.788C3920.45 462.913 4038.01 490.204 4111.5 510.763C4312.27 566.879 4412.28 663.089 4446.87 698.062C4598.3 850.974 4548 953.988 4524.29 991.009C4510.66 1012.3 4467.54 1091.9 4296.34 1115.02C4253.52 1120.8 4204.18 1119.34 4158.69 1111.07ZM4044.24 1025.76C4044.24 1025.76 4042.83 972.572 4043.13 920.114C4043.27 892.458 4043.87 865.095 4043.87 865.095C4043.87 865.095 3978.38 866.265 3901.18 888.726C3893.18 891.068 3877.33 898.091 3875.92 906.139C3874.44 914.407 3879.26 921.284 3885.48 927.649C3957.19 1000.74 4044.24 1025.84 4044.24 1025.84V1025.76ZM6140.99 856.827H6003.34C6001.86 809.856 5997.04 763.397 5988.97 717.816C5987.56 709.987 5980.67 704.281 5972.67 704.281H5935.56C5928.3 704.281 5922.81 710.792 5924.15 717.889C5932.81 763.397 5938 809.856 5939.56 856.9H5799.69C5793.32 856.9 5788.13 862.022 5788.13 868.387V910.09C5788.13 916.455 5793.32 921.577 5799.69 921.577H5939.56C5937.93 968.621 5932.74 1015.01 5924.15 1060.59C5922.81 1067.68 5928.3 1074.2 5935.56 1074.2H5972.67C5980.67 1074.2 5987.56 1068.49 5988.97 1060.66C5997.04 1015.01 6001.86 968.621 6003.34 921.65H6140.99C6147.36 921.65 6152.54 916.529 6152.54 910.163V868.46C6152.54 862.095 6147.36 856.973 6140.99 856.973V856.827ZM4669.71 735.009C4653.79 741.155 4629.04 746.496 4611.04 745.252C4586.82 743.57 4576.81 737.863 4576.81 737.863C4576.81 737.863 4572 746.716 4569.11 751.032C4560.44 763.982 4551.92 762.373 4545.92 757.251C4537.62 750.008 4532.74 738.668 4532.44 727.766C4532.29 723.011 4533.11 717.67 4532.14 713.646C4530.66 706.841 4523.7 699.818 4519.99 693.306C4515.62 685.624 4494.06 644.36 4543.18 592.34C4561.92 572.513 4586.59 556.124 4613.34 544.93C4638.6 534.394 4675.64 527.224 4703.42 536.736C4712.46 539.809 4725.05 547.418 4731.35 555.319C4732.68 557.002 4733.79 558.758 4735.2 559.636C4736.46 560.441 4739.42 560.66 4742.24 561.172C4751.94 563.075 4763.87 569.294 4769.06 573.757C4779.5 582.683 4785.21 591.169 4787.87 603.534C4793.21 628.41 4778.69 655.7 4762.17 672.308C4733.87 700.915 4705.94 721.035 4669.71 735.009ZM4618.15 599.437C4623.12 595.193 4629.04 590.438 4629.04 590.438C4629.04 590.438 4604.15 589.853 4574.96 614.436C4559.92 627.093 4543.48 647.725 4550.96 666.016C4552.07 668.65 4553.7 672.089 4553.7 672.089C4553.7 672.089 4575.48 636.312 4618.15 599.437ZM4703.49 674.43C4723.57 662.87 4753.5 641.433 4750.46 615.753C4749.5 607.485 4744.02 601.266 4737.05 598.266C4725.42 593.218 4709.79 596.145 4691.72 606.753C4668.68 620.362 4635.56 648.603 4617.71 671.357C4613.56 676.698 4602.45 691.696 4602.67 692.355C4604.08 694.769 4657.93 700.696 4703.57 674.43H4703.49Z" fill="white"/>
</g>
<path d="M3220.53 973.49V711.398H3268.48L3386.9 881.767H3387.99V711.398H3442.66V973.49H3395.08L3276.29 801.85H3275.2V973.49H3220.53Z" fill="white"/>
<path d="M3058.71 978.034C2980.79 978.034 2932.29 925.906 2932.29 842.538V842.174C2932.29 758.806 2981.15 706.86 3058.71 706.86C3136.45 706.86 3185.12 758.988 3185.12 842.174V842.538C3185.12 925.906 3136.63 978.034 3058.71 978.034ZM3058.71 931.537C3102.3 931.537 3129.18 896.845 3129.18 842.538V842.174C3129.18 787.504 3101.75 753.357 3058.71 753.357C3015.84 753.357 2988.24 787.322 2988.24 842.174V842.538C2988.24 897.39 3015.66 931.537 3058.71 931.537Z" fill="white"/>
<path fill-rule="evenodd" clip-rule="evenodd" d="M1911.85 709.661C1911.85 709.661 1909.12 735.22 1905.02 763.619C1896.33 825.8 1841.09 869.093 1781.21 860.65H1514.92L1484.87 1108.2H1272.75L1320.09 709.661H1911.85ZM1126.63 709.661C1193.09 709.661 1277.75 739.48 1260.91 864.437C1256.44 915.69 1248.07 966.495 1235.88 1016.37C1200.37 1104.41 1094.76 1107.25 1079.74 1108.2H610.426L631.365 935.435H1044.24L1053.34 860.65H766.106C694.184 860.65 643.202 813.791 658.679 709.661H1126.63ZM617.71 709.661L599.501 860.65H243.989L234.884 935.435H590.398L569.004 1108.2H0L48.7065 709.661H617.71ZM1955.1 709.661H2167.22L2118.97 1108.2H1906.39L1955.1 709.661ZM2570.07 709.661L2521.82 1108.2H2307.88L2356.13 709.661H2570.07ZM649.574 457.38L627.269 640.082H56.8999L79.2053 457.38H649.574ZM1784.4 457.38C1902.75 457.38 1934.61 527.905 1925.05 606.003C1925.05 619.729 1921.41 635.822 1920.96 639.609H667.327C667.327 639.609 670.514 614.523 673.7 586.124C682.349 511.339 741.98 460.693 832.565 457.38H1784.4ZM2448.99 457.38C2522.28 457.38 2598.3 492.406 2583.28 612.156C2580.54 633.456 2580.09 640.082 2580.09 640.082H1961.47L1983.77 457.38H2448.99Z" fill="white"/>
</g>
</g>
<defs>
<clipPath id="clip0_2021_39">
<rect width="6154" height="1310" fill="white"/>
</clipPath>
</defs>
</svg>
