<svg width="24" height="24" viewBox="0 0 24 24" fill="none" xmlns="http://www.w3.org/2000/svg">
<g clip-path="url(#clip0_1016_616)">
<path d="M10.9974 12.955L10.8836 13.8701H15.2838L15.0246 15.9915H8.0007L8.59498 11.1024H15.6189L15.3944 12.955H10.9974Z" fill="white"/>
<path d="M15.7231 10.2482H8.69601L8.96787 8.00519H15.9949L15.7231 10.2482Z" fill="white"/>
<path d="M20.1583 4.80868C19.4312 3.96396 18.249 3.5 16.8265 3.5H5.03573L3 20.5C3 20.5 14.2945 20.5 14.7718 20.5C15.1543 20.5 15.5242 20.4712 15.8687 20.4168C17.661 20.132 18.9729 19.2009 19.564 17.7899C19.8295 17.1563 20.1804 14.6125 20.1899 14.5422C20.3195 13.627 20.114 12.8015 19.5956 12.1296C20.25 11.672 20.506 11.0737 20.604 10.6257C20.7052 10.1714 20.9201 8.30274 20.9422 8.13636C21.1287 6.75089 20.8632 5.631 20.152 4.80228L20.1583 4.80868ZM19.6557 8.20675C19.5766 8.84029 19.4628 9.97939 19.3491 10.4977C19.1847 11.2369 18.5777 11.5824 17.9361 11.7488C17.7812 11.7904 17.7464 11.9952 17.8823 12.0816C18.4924 12.4688 19.1057 13.1407 18.9381 14.299C18.8686 14.7757 18.6663 16.5388 18.4007 17.1723C17.8033 18.593 16.3903 19.0121 15.5368 19.1465C15.2428 19.1913 14.9457 19.2137 14.6485 19.2137C13.0459 19.2137 4.41616 19.2137 4.41616 19.2137L6.1421 4.79267H16.5989C18.2522 4.79267 20.016 5.5542 19.6525 8.21315L19.6557 8.20675Z" fill="white"/>
</g>
<defs>
<clipPath id="clip0_1016_616">
<rect width="18" height="17" fill="white" transform="translate(3 3.5)"/>
</clipPath>
</defs>
</svg>
