<?xml version="1.0" encoding="UTF-8"?>
<svg width="38px" height="31px" viewBox="0 0 38 31" version="1.1" xmlns="http://www.w3.org/2000/svg" xmlns:xlink="http://www.w3.org/1999/xlink">
    <title>Logos/Teams/Flags/ESPN</title>
    <defs>
        <polyline id="path-1" points="19.897712 0.117344 15.54808 6.39768 11.296032 0.117344 0.093936 0.117344 8.02864 11.836848 10.999936 9.357424 14.689584 8.359696 19.88312 9.140976 23.244448 11.719808 31.100416 0.117344"></polyline>
    </defs>
    <g id="•-Clubhouse-Medal-tab" stroke="none" stroke-width="1" fill="none" fill-rule="evenodd">
        <g id="1280-espn.com-medal-tracker-copy-9" transform="translate(-684.000000, -434.000000)">
            <g id="Group-6" transform="translate(657.000000, 429.000000)">
                <g id="Group" transform="translate(26.000000, 0.000000)">
                    <g id="Group-20" transform="translate(1.000000, 5.000000)">
                        <g id="Group-3" transform="translate(3.344000, 1.706656)">
                            <mask id="mask-2" fill="white">
                                <use xlink:href="#path-1"></use>
                            </mask>
                            <g id="Clip-2"></g>
                            <line x1="9.6965056" y1="11.4804992" x2="17.8017536" y2="-0.4907168" id="Stroke-1" stroke="#CBCCCE" stroke-width="8" mask="url(#mask-2)"></line>
                        </g>
                        <polygon id="Fill-4" fill="#1F2B5A" points="12.3134592 16.55964 1.7187552 0.911848 15.1239392 0.911848 25.7186432 16.55964"></polygon>
                        <path d="M0,9.12e-05 L1.92736,2.8467472 L11.286912,16.6702352 L11.829552,17.4715792 L12.797488,17.4715792 L23.999584,17.4715792 L27.43752,17.4715792 L25.51016,14.6252272 L16.150608,0.8014352 L15.607664,9.12e-05 L0,9.12e-05 Z M3.437936,1.8237872 L14.640032,1.8237872 L23.999584,15.6475792 L12.797488,15.6475792 L3.437936,1.8237872 Z" id="Fill-5" fill="#FFFFFF"></path>
                        <polygon id="Fill-6" fill="#1F2B5A" points="12.1632224 16.559944 22.7579264 0.912152 36.1631104 0.912152 25.5687104 16.559944"></polygon>
                        <path d="M22.273776,9.12e-05 L21.73144,0.8014352 L12.371888,14.6252272 L10.444832,17.4715792 L13.88216,17.4715792 L25.084864,17.4715792 L26.052496,17.4715792 L26.595136,16.6702352 L35.954688,2.8467472 L37.881744,9.12e-05 L22.273776,9.12e-05 Z M23.241712,1.8237872 L34.444416,1.8237872 L25.084864,15.6475792 L13.88216,15.6475792 L23.241712,1.8237872 Z" id="Fill-7" fill="#FFFFFF"></path>
                        <g id="Group-19" transform="translate(7.904000, 9.002656)">
                            <path d="M11.036872,1.844824 C6.097784,1.844824 2.079208,5.8634 2.079208,10.802488 C2.079208,15.741576 6.097784,19.760152 11.036872,19.760152 C15.976264,19.760152 19.994536,15.741576 19.994536,10.802488 C19.994536,5.8634 15.976264,1.844824 11.036872,1.844824" id="Fill-8" fill="#B2B2B2"></path>
                            <path d="M6.4754147,6.06994283 C7.1320547,7.24368683 7.8841507,7.93954283 8.6587427,8.39250283 C9.4372867,8.83999083 10.2067107,9.01722283 10.9809987,9.02573483 C11.7555907,9.02178283 12.5274467,8.84333483 13.3065987,8.39523883 C14.0824067,7.94258283 14.8345027,7.24368683 15.4871907,6.06994283 L15.6692867,6.06994283 C15.6829667,6.68341483 15.5765667,7.30296683 15.3522147,7.88026283 C15.1208707,8.45543083 14.7724867,8.98287083 14.3374627,9.42610283 C13.4683267,10.3165188 12.2340867,10.8430468 10.9809987,10.8491268 C9.7279107,10.8439588 8.4939747,10.3165188 7.6248387,9.42640683 C7.1898147,8.98287083 6.8414307,8.45543083 6.6097827,7.88056683 C6.3854307,7.30296683 6.2790307,6.68341483 6.2930147,6.06994283 L6.4754147,6.06994283 Z" id="Fill-12" fill-opacity="0.22" fill="#FFFFFF" transform="translate(10.981126, 8.459535) rotate(-180.000000) translate(-10.981126, -8.459535) "></path>
                            <path d="M11.036872,0.020824 C5.091848,0.020824 0.255208,4.857464 0.255208,10.802488 C0.255208,16.747208 5.091848,21.584152 11.036872,21.584152 C16.9822,21.584152 21.818536,16.747208 21.818536,10.802488 C21.818536,4.857464 16.9822,0.020824 11.036872,0.020824 M11.036872,1.844824 C15.976264,1.844824 19.994536,5.8634 19.994536,10.802488 C19.994536,15.741576 15.976264,19.760152 11.036872,19.760152 C6.097784,19.760152 2.079208,15.741576 2.079208,10.802488 C2.079208,5.8634 6.097784,1.844824 11.036872,1.844824" id="Fill-14" fill="#FFFFFF"></path>
                            <path d="M11.036872,4.3813088 C7.496488,4.3813088 4.616088,7.2620128 4.616088,10.8023968 C4.616088,14.3430848 7.496488,17.2231808 11.036872,17.2231808 C14.577256,17.2231808 17.45796,14.3430848 17.45796,10.8023968 C17.45796,7.2620128 14.577256,4.3813088 11.036872,4.3813088 M11.036872,6.2053088 C13.571624,6.2053088 15.63396,8.2676448 15.63396,10.8023968 C15.63396,13.3371488 13.571624,15.3991808 11.036872,15.3991808 C8.50212,15.3991808 6.440088,13.3371488 6.440088,10.8023968 C6.440088,8.2676448 8.50212,6.2053088 11.036872,6.2053088" id="Fill-17" fill-opacity="0.1" fill="#000000"></path>
                        </g>
                    </g>
                </g>
            </g>
        </g>
    </g>
</svg>